<?xml version="1.0" encoding="UTF-8" standalone="no"?>
<svg width="25px" height="26px" viewBox="0 0 25 26" version="1.1" xmlns="http://www.w3.org/2000/svg" xmlns:xlink="http://www.w3.org/1999/xlink" xmlns:sketch="http://www.bohemiancoding.com/sketch/ns">
    <!-- Generator: Sketch 3.3.3 (12072) - http://www.bohemiancoding.com/sketch -->
    <title>FullScreen Exit</title>
    <desc>Created with Sketch.</desc>
    <defs></defs>
    <g id="V1-&quot;Export-Raf&quot;" stroke="none" stroke-width="1" fill="none" fill-rule="evenodd" sketch:type="MSPage">
        <g id="View-Title-Copy" sketch:type="MSLayerGroup" transform="translate(-815.000000, -373.000000)" fill="#FFFFFF">
            <g id="Options-Right" transform="translate(672.080208, 373.334375)" sketch:type="MSShapeGroup">
                <g id="full-screen-+-FullScreen-Enter-Copy" transform="translate(144.000000, 1.000000)">
                    <g id="full-screen" transform="translate(0.002083, 0.454167)">
                        <g id="Fill-1-Copy-+-Fill-2-Copy">
                            <path d="M20.69743,0.452385949 L14.6343262,0.452385949 C14.2843985,0.452385949 13.9682509,0.662862266 13.8339965,0.986805241 C13.6997421,1.31074821 13.7742316,1.68319602 14.0219527,1.93091712 L16.1345113,4.04434187 L13.2822541,6.89573297 L15.1193745,8.73371958 L17.9716318,5.88146232 L20.0850565,7.99402092 C20.2504926,8.15945703 20.472229,8.24780512 20.69743,8.24780512 C20.8091643,8.24780512 20.9217648,8.22701733 21.0291684,8.18197713 C21.3522452,8.04858885 21.5635877,7.73157514 21.5635877,7.38164743 L21.5635877,1.31854363 C21.5635877,0.839558434 21.175549,0.452385949 20.69743,0.452385949" id="Fill-1-Copy" transform="translate(17.422921, 4.593053) scale(-1, -1) translate(-17.422921, -4.593053) "></path>
                            <path d="M6.683781,12.494206 L3.83152375,15.3464633 L1.71896515,13.2339047 C1.47124405,12.9853174 1.09879625,12.9099617 0.774853274,13.0459485 C0.451776457,13.1802029 0.240433982,13.4963505 0.240433982,13.8462782 L0.240433982,19.909382 C0.240433982,20.3883672 0.628472625,20.7755397 1.10659167,20.7755397 L7.16969547,20.7755397 C7.51962317,20.7755397 7.83577073,20.5650633 7.97002517,20.2411204 C8.10427961,19.9171774 8.02979005,19.5447296 7.78206895,19.2970085 L5.66951035,17.1844499 L8.52090146,14.3313265 L6.683781,12.494206" id="Fill-2-Copy" transform="translate(4.380668, 16.634873) scale(-1, -1) translate(-4.380668, -16.634873) "></path>
                        </g>
                    </g>
                </g>
            </g>
        </g>
    </g>
</svg>