<?xml version="1.0" encoding="UTF-8" standalone="no"?>
<svg width="18px" height="18px" viewBox="0 0 18 18" version="1.1" xmlns="http://www.w3.org/2000/svg" xmlns:xlink="http://www.w3.org/1999/xlink" xmlns:sketch="http://www.bohemiancoding.com/sketch/ns">
    <!-- Generator: Sketch 3.3.3 (12072) - http://www.bohemiancoding.com/sketch -->
    <title>Fill 1</title>
    <desc>Created with Sketch.</desc>
    <defs></defs>
    <g id="V1-&quot;Export-Raf&quot;" stroke="none" stroke-width="1" fill="none" fill-rule="evenodd" sketch:type="MSPage">
        <g id="View-Title-Copy" sketch:type="MSLayerGroup" transform="translate(-90.000000, -441.000000)" fill="#FFFFFF">
            <g id="Options-Left" transform="translate(33.675000, 439.779167)" sketch:type="MSShapeGroup">
                <g id="icon-Sound" transform="translate(56.617708, 0.454167)">
                    <path d="M8.9770155,7.22739794 L8.9770155,1.89004315 C8.9770155,1.51198052 8.73643149,1.17572717 8.37645316,1.05118889 C8.01647484,0.923981931 7.61609995,1.03962462 7.37820904,1.33406869 L4.05671331,5.44827968 L1.5628984,5.44827968 C1.17060282,5.44827968 0.823192322,5.70091447 0.70649112,6.07275019 L0.666992252,6.19817803 C0.385113965,7.0868476 0,8.30287494 0,9.90763961 C0,11.4910549 0.383318562,12.6990762 0.662503744,13.5824084 L0.70649112,13.7194005 C0.823192322,14.0912362 1.17060282,14.343871 1.5628984,14.343871 L4.05671331,14.343871 L7.37820904,18.458082 C7.55236314,18.6724657 7.81179889,18.7916667 8.07931395,18.7916667 C8.17895882,18.7916667 8.2795014,18.774765 8.37645316,18.7409618 C8.73643149,18.6164235 8.9770155,18.2801702 8.9770155,17.9021075 L8.9770155,12.5647527 L8.9770155,7.22739794 Z M13.4655233,9.89607534 C13.4655233,11.6378321 12.3407032,13.125175 10.7724186,13.6660269 L10.7724186,6.1270133 C12.3407032,6.66697569 13.4655233,8.15431856 13.4655233,9.89607534 Z M17.0563295,9.89607534 C17.0563295,13.6944928 14.3632248,16.8880101 10.7724186,17.7064045 L10.7724186,15.8650171 C13.3667761,15.0999963 15.2609264,12.7159778 15.2609264,9.89607534 C15.2609264,7.07617289 13.3667761,4.69215442 10.7724186,3.92713356 L10.7724186,2.08574616 C14.3632248,2.90414056 17.0563295,6.09765785 17.0563295,9.89607534 Z" id="Fill-1"></path>
                </g>
            </g>
        </g>
    </g>
</svg>