<?xml version="1.0" encoding="UTF-8" standalone="no"?>
<svg width="18px" height="18px" viewBox="0 0 18 18" version="1.1" xmlns="http://www.w3.org/2000/svg" xmlns:xlink="http://www.w3.org/1999/xlink" xmlns:sketch="http://www.bohemiancoding.com/sketch/ns">
    <!-- Generator: Sketch 3.3.3 (12072) - http://www.bohemiancoding.com/sketch -->
    <title>Fill 1</title>
    <desc>Created with Sketch.</desc>
    <defs></defs>
    <g id="V1-&quot;Export-Raf&quot;" stroke="none" stroke-width="1" fill="none" fill-rule="evenodd" sketch:type="MSPage">
        <g id="View-Title-Copy" sketch:type="MSLayerGroup" transform="translate(-90.000000, -441.000000)" fill="#FFFFFF">
            <g id="Options-Left" transform="translate(33.675000, 439.779167)" sketch:type="MSShapeGroup">
                <g id="icon-Sound" transform="translate(55.617708, 0.454167)">
                    <path d="M9.9770155,7.22739794 L9.9770155,1.89004315 C9.9770155,1.51198052 9.73643149,1.17572717 9.37645316,1.05118889 C9.01647484,0.923981931 8.61609995,1.03962462 8.37820904,1.33406869 L5.05671331,5.44827968 L2.5628984,5.44827968 C2.17060282,5.44827968 1.82319232,5.70091447 1.70649112,6.07275019 L1.66699225,6.19817803 C1.38511397,7.0868476 1,8.30287494 1,9.90763961 C1,11.4910549 1.38331856,12.6990762 1.66250374,13.5824084 L1.70649112,13.7194005 C1.82319232,14.0912362 2.17060282,14.343871 2.5628984,14.343871 L5.05671331,14.343871 L8.37820904,18.458082 C8.55236314,18.6724657 8.81179889,18.7916667 9.07931395,18.7916667 C9.17895882,18.7916667 9.2795014,18.774765 9.37645316,18.7409618 C9.73643149,18.6164235 9.9770155,18.2801702 9.9770155,17.9021075 L9.9770155,12.5647527" id="Fill-1"></path>
                </g>
            </g>
        </g>
    </g>
</svg>